<?xml version="1.0" encoding="UTF-8"?>
<!DOCTYPE svg PUBLIC "-//W3C//DTD SVG 1.1//EN" "http://www.w3.org/Graphics/SVG/1.1/DTD/svg11.dtd">
<svg version="1.2" width="190.24mm" height="114.3mm" viewBox="0 0 19024 11430" preserveAspectRatio="xMidYMid" fill-rule="evenodd" stroke-width="28.222" stroke-linejoin="round" xmlns="http://www.w3.org/2000/svg" xmlns:ooo="http://xml.openoffice.org/svg/export" xmlns:xlink="http://www.w3.org/1999/xlink" xmlns:presentation="http://sun.com/xmlns/staroffice/presentation" xmlns:smil="http://www.w3.org/2001/SMIL20/" xmlns:anim="urn:oasis:names:tc:opendocument:xmlns:animation:1.0" xmlns:svg="urn:oasis:names:tc:opendocument:xmlns:svg-compatible:1.0" xml:space="preserve">
 <defs class="ClipPathGroup">
  <clipPath id="presentation_clip_path" clipPathUnits="userSpaceOnUse">
   <rect x="0" y="0" width="19024" height="11430"/>
  </clipPath>
  <clipPath id="presentation_clip_path_shrink" clipPathUnits="userSpaceOnUse">
   <rect x="19" y="11" width="18986" height="11408"/>
  </clipPath>
 </defs>
 <defs class="TextShapeIndex">
  <g ooo:slide="id1" ooo:id-list="id3"/>
 </defs>
 <defs class="EmbeddedBulletChars">
  <g id="bullet-char-template-57356" transform="scale(0.00048828125,-0.00048828125)">
   <path d="M 580,1141 L 1163,571 580,0 -4,571 580,1141 Z"/>
  </g>
  <g id="bullet-char-template-57354" transform="scale(0.00048828125,-0.00048828125)">
   <path d="M 8,1128 L 1137,1128 1137,0 8,0 8,1128 Z"/>
  </g>
  <g id="bullet-char-template-10146" transform="scale(0.00048828125,-0.00048828125)">
   <path d="M 174,0 L 602,739 174,1481 1456,739 174,0 Z M 1358,739 L 309,1346 659,739 1358,739 Z"/>
  </g>
  <g id="bullet-char-template-10132" transform="scale(0.00048828125,-0.00048828125)">
   <path d="M 2015,739 L 1276,0 717,0 1260,543 174,543 174,936 1260,936 717,1481 1274,1481 2015,739 Z"/>
  </g>
  <g id="bullet-char-template-10007" transform="scale(0.00048828125,-0.00048828125)">
   <path d="M 0,-2 C -7,14 -16,27 -25,37 L 356,567 C 262,823 215,952 215,954 215,979 228,992 255,992 264,992 276,990 289,987 310,991 331,999 354,1012 L 381,999 492,748 772,1049 836,1024 860,1049 C 881,1039 901,1025 922,1006 886,937 835,863 770,784 769,783 710,716 594,584 L 774,223 C 774,196 753,168 711,139 L 727,119 C 717,90 699,76 672,76 641,76 570,178 457,381 L 164,-76 C 142,-110 111,-127 72,-127 30,-127 9,-110 8,-76 1,-67 -2,-52 -2,-32 -2,-23 -1,-13 0,-2 Z"/>
  </g>
  <g id="bullet-char-template-10004" transform="scale(0.00048828125,-0.00048828125)">
   <path d="M 285,-33 C 182,-33 111,30 74,156 52,228 41,333 41,471 41,549 55,616 82,672 116,743 169,778 240,778 293,778 328,747 346,684 L 369,508 C 377,444 397,411 428,410 L 1163,1116 C 1174,1127 1196,1133 1229,1133 1271,1133 1292,1118 1292,1087 L 1292,965 C 1292,929 1282,901 1262,881 L 442,47 C 390,-6 338,-33 285,-33 Z"/>
  </g>
  <g id="bullet-char-template-9679" transform="scale(0.00048828125,-0.00048828125)">
   <path d="M 813,0 C 632,0 489,54 383,161 276,268 223,411 223,592 223,773 276,916 383,1023 489,1130 632,1184 813,1184 992,1184 1136,1130 1245,1023 1353,916 1407,772 1407,592 1407,412 1353,268 1245,161 1136,54 992,0 813,0 Z"/>
  </g>
  <g id="bullet-char-template-8226" transform="scale(0.00048828125,-0.00048828125)">
   <path d="M 346,457 C 273,457 209,483 155,535 101,586 74,649 74,723 74,796 101,859 155,911 209,963 273,989 346,989 419,989 480,963 531,910 582,859 608,796 608,723 608,648 583,586 532,535 482,483 420,457 346,457 Z"/>
  </g>
  <g id="bullet-char-template-8211" transform="scale(0.00048828125,-0.00048828125)">
   <path d="M -4,459 L 1135,459 1135,606 -4,606 -4,459 Z"/>
  </g>
  <g id="bullet-char-template-61548" transform="scale(0.00048828125,-0.00048828125)">
   <path d="M 173,740 C 173,903 231,1043 346,1159 462,1274 601,1332 765,1332 928,1332 1067,1274 1183,1159 1299,1043 1357,903 1357,740 1357,577 1299,437 1183,322 1067,206 928,148 765,148 601,148 462,206 346,322 231,437 173,577 173,740 Z"/>
  </g>
 </defs>
 <g>
  <g id="id2" class="Master_Slide">
   <g id="bg-id2" class="Background"/>
   <g id="bo-id2" class="BackgroundObjects"/>
  </g>
 </g>
 <g class="SlideGroup">
  <g>
   <g id="container-id1">
    <g id="id1" class="Slide" clip-path="url(#presentation_clip_path)">
     <g class="Page">
      <g class="Graphic">
       <g id="id3">
        <rect class="BoundingBox" stroke="none" fill="none" x="42" y="1119" width="18983" height="9017"/>
        <defs>
         <clipPath id="clip_path_1" clipPathUnits="userSpaceOnUse">
          <path d="M 42,1119 L 19024,1119 19024,10135 42,10135 42,1119 Z"/>
         </clipPath>
        </defs>
        <g clip-path="url(#clip_path_1)"/>
        <defs>
         <clipPath id="clip_path_2" clipPathUnits="userSpaceOnUse">
          <path d="M 42,1119 L 19024,1119 19024,10135 42,10135 42,1119 Z"/>
         </clipPath>
        </defs>
        <g clip-path="url(#clip_path_2)">
         <path fill="rgb(254,254,254)" stroke="none" d="M -8750,-5298 C 3286,-5298 15322,-5298 27358,-5298 27358,1933 27358,9163 27358,16393 15322,16393 3286,16393 -8750,16393 -8750,9163 -8750,1933 -8750,-5298 L -8750,-5298 Z"/>
         <path fill="rgb(49,153,230)" stroke="none" d="M 4809,1983 C 4917,1976 5018,2002 5111,2058 6127,2646 7140,3240 8149,3841 8191,5096 8182,6352 8124,7606 7052,8226 5981,8845 4910,9464 3838,8845 2767,8226 1696,7606 1637,6352 1629,5096 1671,3841 2724,3226 3770,2607 4809,1983 L 4809,1983 Z"/>
         <path fill="rgb(48,153,233)" stroke="none" d="M 10836,3037 C 11156,3032 11474,3057 11790,3113 11959,3180 12110,3272 12242,3389 12161,3569 12061,3737 11940,3891 11252,3435 10758,3586 10459,4343 10423,5393 10884,5677 11840,5196 11975,5358 12033,5542 12016,5749 11245,6215 10542,6131 9906,5498 9385,4350 9694,3530 10836,3037 L 10836,3037 Z"/>
         <path fill="rgb(46,152,233)" stroke="none" d="M 12744,3088 C 13008,3072 13268,3089 13522,3138 13657,3712 13808,4281 13974,4845 14246,4269 14488,3683 14702,3088 14903,3088 15104,3088 15305,3088 15432,3679 15583,4265 15757,4845 16008,4278 16259,3709 16510,3138 16760,3079 17011,3071 17264,3113 16831,4051 16412,4997 16008,5949 15793,5999 15575,6016 15355,6000 15250,5429 15091,4877 14878,4343 14624,4870 14390,5406 14175,5949 13954,5998 13728,6015 13497,6000 13259,5026 13008,4055 12744,3088 L 12744,3088 Z"/>
         <path fill="rgb(251,253,254)" stroke="none" d="M 3504,4042 C 3622,4033 3739,4042 3855,4067 3932,4122 3966,4198 3955,4293 3741,4185 3582,4235 3478,4443 3450,4760 3542,5036 3755,5272 4363,5277 4965,5335 5563,5447 5897,5356 6190,5189 6441,4945 6458,5012 6475,5079 6492,5146 6610,5256 6718,5373 6818,5498 6765,5665 6647,5740 6466,5724 6294,5845 6227,6013 6266,6226 6243,6457 6302,6667 6441,6853 6578,7031 6737,7182 6918,7305 6839,7362 6756,7370 6667,7330 6354,7115 6070,6864 5814,6577 5665,6532 5531,6557 5412,6652 5255,6869 5205,7104 5261,7355 5194,7355 5127,7355 5060,7355 5058,7069 5074,6785 5111,6502 4583,6327 4231,6495 4056,7004 4120,7152 4221,7269 4357,7355 4278,7412 4194,7421 4106,7380 3833,7171 3732,6895 3805,6552 3477,6579 3234,6730 3077,7004 3067,7108 3042,7209 3001,7305 2929,7271 2895,7213 2901,7129 2929,6729 3105,6419 3428,6201 3447,5986 3489,5777 3554,5573 3456,5369 3364,5160 3278,4945 3188,4595 3264,4294 3504,4042 L 3504,4042 Z"/>
         <path fill="rgb(59,153,229)" stroke="none" d="M 11288,7104 C 11338,7104 11388,7104 11438,7104 11438,7188 11438,7272 11438,7355 11706,7389 11706,7422 11438,7456 11438,7623 11438,7791 11438,7958 11694,7956 11703,7990 11463,8058 11408,8054 11357,8037 11313,8008 11288,7825 11279,7641 11288,7456 11087,7422 11087,7389 11288,7355 11288,7272 11288,7188 11288,7104 L 11288,7104 Z"/>
         <path fill="rgb(89,165,232)" stroke="none" d="M 15305,7054 C 15355,7054 15406,7054 15456,7054 15456,7121 15456,7188 15456,7255 15282,7267 15232,7200 15305,7054 L 15305,7054 Z"/>
         <path fill="rgb(56,152,229)" stroke="none" d="M 9831,7355 C 9966,7347 10100,7356 10233,7380 10296,7455 10296,7531 10233,7606 10188,7565 10172,7515 10183,7456 9881,7431 9773,7565 9856,7857 9897,7923 9955,7956 10032,7958 10114,7930 10198,7914 10283,7908 10283,7958 10283,8008 10283,8058 9697,8091 9547,7857 9831,7355 L 9831,7355 Z"/>
         <path fill="rgb(56,152,229)" stroke="none" d="M 10434,7355 C 10585,7347 10736,7355 10886,7380 10947,7592 11014,7801 11087,8008 10877,8036 10660,8044 10434,8033 10371,7942 10371,7850 10434,7757 10556,7679 10690,7645 10836,7657 10821,7470 10721,7411 10534,7481 10472,7580 10422,7571 10384,7456 10402,7422 10419,7388 10434,7355 L 10434,7355 Z"/>
         <path fill="rgb(61,154,230)" stroke="none" d="M 11689,7355 C 11795,7340 11895,7357 11991,7406 11974,7439 11957,7473 11940,7506 11987,7621 12029,7738 12066,7857 12101,7746 12143,7637 12191,7531 12165,7483 12132,7442 12091,7406 12208,7339 12325,7339 12443,7406 12402,7442 12368,7483 12342,7531 12391,7637 12433,7746 12468,7857 12503,7746 12544,7637 12593,7531 12581,7487 12565,7445 12543,7406 12643,7339 12744,7339 12844,7406 12807,7445 12765,7479 12719,7506 12665,7675 12607,7843 12543,8008 12493,8075 12443,8075 12392,8008 12278,7617 12194,7634 12141,8058 12082,8069 12032,8053 11991,8008 11909,7777 11808,7560 11689,7355 L 11689,7355 Z"/>
         <path fill="rgb(66,155,229)" stroke="none" d="M 13196,7305 C 13557,7323 13699,7507 13623,7857 13393,8124 13159,8124 12920,7857 12853,7588 12945,7404 13196,7305 L 13196,7305 Z"/>
         <path fill="rgb(48,149,228)" stroke="none" d="M 16460,7958 C 16460,7991 16460,8025 16460,8058 16376,8058 16293,8058 16209,8058 16217,7873 16209,7689 16184,7506 15962,7409 15870,7484 15908,7732 15917,7835 15951,7927 16008,8008 15896,8057 15778,8074 15657,8058 15697,7946 15731,7829 15757,7707 15764,7591 15730,7491 15657,7406 15690,7389 15724,7372 15757,7355 15920,7371 16088,7379 16259,7380 16321,7582 16388,7774 16460,7958 L 16460,7958 Z"/>
         <path fill="rgb(74,159,231)" stroke="none" d="M 16460,8058 C 16460,8025 16460,7991 16460,7958 16624,7881 16657,7764 16561,7606 16575,7424 16676,7324 16862,7305 16996,7322 17130,7339 17264,7355 17220,7393 17169,7418 17113,7431 17168,7534 17176,7643 17138,7757 17004,7826 16862,7876 16711,7908 16882,7941 17049,7983 17213,8033 17273,8141 17256,8242 17163,8334 16965,8440 16772,8432 16586,8309 16550,8228 16558,8153 16611,8083 16568,7997 16518,7988 16460,8058 L 16460,8058 Z"/>
         <path fill="rgb(242,248,253)" stroke="none" d="M 13146,7456 C 13504,7462 13588,7621 13397,7933 13046,7927 12962,7768 13146,7456 L 13146,7456 Z"/>
         <path fill="rgb(244,249,253)" stroke="none" d="M 16761,7456 C 16939,7425 17031,7492 17038,7657 16769,7826 16677,7759 16761,7456 L 16761,7456 Z"/>
         <path fill="rgb(60,150,222)" stroke="none" d="M 15054,7908 C 15107,7944 15140,7994 15154,8058 15054,8058 14954,8058 14853,8058 14874,7900 14816,7783 14677,7707 14571,7814 14580,7915 14702,8008 14585,8075 14468,8075 14351,8008 14412,7876 14446,7734 14451,7581 14437,7399 14404,7223 14351,7054 14435,7054 14518,7054 14602,7054 14594,7239 14602,7423 14627,7606 14755,7570 14814,7487 14803,7355 14909,7340 15009,7357 15104,7406 15015,7493 14914,7568 14803,7632 14861,7748 14945,7841 15054,7908 L 15054,7908 Z"/>
         <path fill="rgb(237,245,252)" stroke="none" d="M 10635,7757 C 10702,7757 10769,7757 10836,7757 10836,7807 10836,7857 10836,7908 10735,7924 10635,7941 10534,7958 10536,7873 10569,7806 10635,7757 L 10635,7757 Z"/>
         <path fill="rgb(181,213,239)" stroke="none" d="M 15305,7506 C 15374,7693 15357,7877 15255,8058 15221,8058 15188,8058 15154,8058 15140,7994 15107,7944 15054,7908 15138,7908 15221,7908 15305,7908 15305,7774 15305,7640 15305,7506 L 15305,7506 Z"/>
         <path fill="rgb(71,155,226)" stroke="none" d="M 15255,8058 C 15357,7877 15374,7693 15305,7506 15305,7456 15305,7406 15305,7355 15372,7355 15439,7355 15506,7355 15492,7576 15509,7794 15556,8008 15461,8057 15361,8073 15255,8058 L 15255,8058 Z"/>
         <path fill="rgb(79,158,225)" stroke="none" d="M 14100,7305 C 14240,7329 14307,7412 14301,7556 14218,7557 14151,7524 14100,7456 13999,7504 13949,7587 13949,7707 13975,7829 14009,7946 14050,8058 13932,8058 13815,8058 13698,8058 13742,7938 13775,7812 13798,7682 13789,7579 13755,7487 13698,7406 13791,7342 13883,7342 13974,7406 14024,7377 14066,7344 14100,7305 L 14100,7305 Z"/>
         <path fill="rgb(142,198,240)" stroke="none" d="M 17013,8109 C 16883,8085 16782,8118 16711,8209 16666,8173 16649,8123 16661,8058 16790,8043 16907,8060 17013,8109 L 17013,8109 Z"/>
         <path fill="rgb(249,252,254)" stroke="none" d="M 17013,8109 C 17058,8144 17075,8194 17063,8259 16934,8274 16817,8258 16711,8209 16782,8118 16883,8085 17013,8109 L 17013,8109 Z"/>
        </g>
        <g clip-path="url(#clip_path_1)"/>
       </g>
      </g>
     </g>
    </g>
   </g>
  </g>
 </g>
</svg>