<!-- icon666.com - MILLIONS vector ICONS FREE --><svg version="1.1" id="Capa_1" xmlns="http://www.w3.org/2000/svg" xmlns:xlink="http://www.w3.org/1999/xlink" x="0px" y="0px" viewBox="0 0 40 40" style="enable-background:new 0 0 40 40;" xml:space="preserve"><g><g><path style="fill:#010002;" d="M11.136,15.797c0.173-0.137,0.414-0.328,0.557-0.458c0.047-0.199,0.098-0.529,0.134-0.764 c0.196-1.276,0.525-3.411,2.475-4.539c0.66-0.381,1.399-0.575,2.198-0.575c0.347,0,0.678,0.045,1,0.106V0H3.855 C2.002,0,0.5,1.502,0.5,3.355V18h8.53C9.624,17.001,10.508,16.294,11.136,15.797z"></path><path style="fill:#010002;" d="M36.144,0H22.5v9.662c0.452-0.116,0.932-0.201,1.44-0.201c0.799,0,1.538,0.193,2.198,0.575 c1.95,1.128,2.279,3.263,2.475,4.539c0.037,0.235,0.087,0.565,0.134,0.764c0.143,0.13,0.384,0.321,0.557,0.458 c0.628,0.497,1.512,1.204,2.106,2.203h8.09V3.355C39.5,1.502,37.998,0,36.144,0z"></path><path style="fill:#010002;" d="M14.302,30.524c-1.95-1.128-2.278-3.263-2.475-4.539c-0.037-0.235-0.087-0.565-0.134-0.764 c-0.143-0.13-0.384-0.321-0.557-0.458C10.604,24.342,9.891,23.77,9.323,23H0.5v13.645C0.5,38.498,2.002,40,3.855,40H17.5v-9.007 c-0.322,0.061-0.653,0.106-1,0.106C15.701,31.099,14.962,30.906,14.302,30.524z"></path><path style="fill:#010002;" d="M29.304,24.763c-0.173,0.137-0.414,0.328-0.557,0.458c-0.047,0.199-0.098,0.529-0.134,0.764 c-0.196,1.276-0.525,3.411-2.475,4.539c-0.66,0.381-1.399,0.575-2.198,0.575c-0.508,0-0.988-0.085-1.44-0.201V40h13.645 c1.853,0,3.355-1.502,3.355-3.355V23h-8.383C30.549,23.77,29.836,24.342,29.304,24.763z"></path><path style="fill:#010002;" d="M23.94,28.099c0.251,0,0.485-0.05,0.696-0.172c1.188-0.688,0.813-3.045,1.5-4.233 c0.141-0.243,0.36-0.471,0.605-0.694c0.917-0.835,2.308-1.595,2.308-2.72c0-0.926-0.945-1.604-1.792-2.28 c-0.457-0.365-0.887-0.73-1.121-1.134c-0.688-1.189-0.312-3.546-1.5-4.233c-0.211-0.122-0.445-0.172-0.696-0.172 c-0.442,0-0.934,0.156-1.44,0.343c-0.772,0.286-1.576,0.647-2.28,0.647c-0.839,0-1.819-0.51-2.72-0.798 c-0.349-0.112-0.688-0.192-1-0.192c-0.25,0-0.484,0.05-0.696,0.172c-1.188,0.688-0.813,3.045-1.5,4.233 C14.07,17.27,13.64,17.635,13.183,18c-0.847,0.676-1.792,1.354-1.792,2.28c0,1.125,1.391,1.884,2.308,2.72 c0.245,0.223,0.465,0.451,0.605,0.694c0.688,1.189,0.312,3.546,1.5,4.233c0.211,0.122,0.445,0.172,0.696,0.172 c0.312,0,0.651-0.081,1-0.192c0.9-0.287,1.881-0.798,2.72-0.798c0.704,0,1.508,0.361,2.28,0.647 C23.006,27.943,23.498,28.099,23.94,28.099z"></path></g></g></svg>